# xmcd
#
# Track frame offsets: 
#        150
#        16116
#        31433
#        52977
#        74281
#        93619
#
# Disc length: 1347 seconds
#
# Revision: 0
# Processed by: cddbd v1.5.2PL0 Copyright (c) Steve Scherf et al.
# Submitted via: ExactAudioCopyFreeDBPlugin 1.0
#
DISCID=45054106
DTITLE=Whitney Rose - South Texas Suite
DYEAR=2017
DGENRE=Country
TTITLE0=Three Minute Love Affair
TTITLE1=Analog
TTITLE2=My Boots
TTITLE3=Bluebonnets For My Baby
TTITLE4=Lookin' Back On Luckenbach
TTITLE5=How 'Bout A Hand For The Band
EXTD=
EXTT0=
EXTT1=
EXTT2=
EXTT3=
EXTT4=
EXTT5=
PLAYORDER=
